<svg version="1.0" xmlns="http://www.w3.org/2000/svg" viewBox="0 0 252.000000 252.000000"><g transform="translate(0.000000,252.000000) scale(0.100000,-0.100000)" fill="#000000"><path d="M1655 2458 c-16 -6 -68 -28 -115 -50 -173 -81 -284 -254 -292 -453 l-3 -70 33 -3 c38 -4 139 24 163 45 8 7 20 13 25 13 13 0 103 88 140 135 68 89 124 242 124 338 0 53 -2 57 -22 56 -13 -1 -36 -6 -53 -11z"/><path d="M1615 1895 c-22 -8 -50 -15 -62 -15 -12 0 -37 -6 -55 -14 -156 -65 -268 -66 -453 -5 -92 31 -289 43 -375 23 -118 -28 -244 -122 -323 -242 -86 -129 -118 -237 -142 -472 -9 -96 29 -346 70 -460 43 -117 124 -292 165 -355 11 -16 23 -37 27 -45 16 -35 125 -169 176 -218 78 -73 127 -92 235 -92 79 0 133 11 197 39 78 35 111 41 212 41 109 0 118 -2 339 -70 17 -6 61 -10 98 -10 53 0 80 6 129 29 135 63 304 288 406 538 31 76 28 88 -25 114 -126 61 -238 220 -270 384 -41 208 22 381 200 555 25 24 46 50 46 56 0 19 -133 137 -189 168 -115 62 -307 86 -406 51z"/></g></svg>